<?xml version="1.0" encoding="UTF-8"?>
<svg xmlns="http://www.w3.org/2000/svg" xmlns:xlink="http://www.w3.org/1999/xlink" width="64.670105" height="27.926323" viewBox="0 0 64.670105 27.926323">
<defs>
<clipPath id="clip-0">
<path clip-rule="nonzero" d="M 13 24 L 16 24 L 16 27.925781 L 13 27.925781 Z M 13 24 "/>
</clipPath>
<clipPath id="clip-1">
<path clip-rule="nonzero" d="M 16 25 L 19 25 L 19 27.925781 L 16 27.925781 Z M 16 25 "/>
</clipPath>
<clipPath id="clip-2">
<path clip-rule="nonzero" d="M 20 24 L 23 24 L 23 27.925781 L 20 27.925781 Z M 20 24 "/>
</clipPath>
<clipPath id="clip-3">
<path clip-rule="nonzero" d="M 23 25 L 26 25 L 26 27.925781 L 23 27.925781 Z M 23 25 "/>
</clipPath>
<clipPath id="clip-4">
<path clip-rule="nonzero" d="M 26 24 L 28 24 L 28 27.925781 L 26 27.925781 Z M 26 24 "/>
</clipPath>
<clipPath id="clip-5">
<path clip-rule="nonzero" d="M 27 25 L 30 25 L 30 27.925781 L 27 27.925781 Z M 27 25 "/>
</clipPath>
<clipPath id="clip-6">
<path clip-rule="nonzero" d="M 30 25 L 33 25 L 33 27.925781 L 30 27.925781 Z M 30 25 "/>
</clipPath>
<clipPath id="clip-7">
<path clip-rule="nonzero" d="M 32 25 L 35 25 L 35 27.925781 L 32 27.925781 Z M 32 25 "/>
</clipPath>
<clipPath id="clip-8">
<path clip-rule="nonzero" d="M 37 25 L 40 25 L 40 27.925781 L 37 27.925781 Z M 37 25 "/>
</clipPath>
<clipPath id="clip-9">
<path clip-rule="nonzero" d="M 40 25 L 43 25 L 43 27.925781 L 40 27.925781 Z M 40 25 "/>
</clipPath>
<clipPath id="clip-10">
<path clip-rule="nonzero" d="M 42 25 L 45 25 L 45 27.925781 L 42 27.925781 Z M 42 25 "/>
</clipPath>
<clipPath id="clip-11">
<path clip-rule="nonzero" d="M 45 24 L 46 24 L 46 27.925781 L 45 27.925781 Z M 45 24 "/>
</clipPath>
<clipPath id="clip-12">
<path clip-rule="nonzero" d="M 46 24 L 49 24 L 49 27.925781 L 46 27.925781 Z M 46 24 "/>
</clipPath>
<clipPath id="clip-13">
<path clip-rule="nonzero" d="M 49 25 L 52 25 L 52 27.925781 L 49 27.925781 Z M 49 25 "/>
</clipPath>
<clipPath id="clip-14">
<path clip-rule="nonzero" d="M 52 25 L 55 25 L 55 27.925781 L 52 27.925781 Z M 52 25 "/>
</clipPath>
<clipPath id="clip-15">
<path clip-rule="nonzero" d="M 55 24 L 57 24 L 57 27.925781 L 55 27.925781 Z M 55 24 "/>
</clipPath>
<clipPath id="clip-16">
<path clip-rule="nonzero" d="M 57 25 L 60 25 L 60 27.925781 L 57 27.925781 Z M 57 25 "/>
</clipPath>
<clipPath id="clip-17">
<path clip-rule="nonzero" d="M 60 24 L 61 24 L 61 27.925781 L 60 27.925781 Z M 60 24 "/>
</clipPath>
<clipPath id="clip-18">
<path clip-rule="nonzero" d="M 61 25 L 64 25 L 64 27.925781 L 61 27.925781 Z M 61 25 "/>
</clipPath>
<clipPath id="clip-19">
<path clip-rule="nonzero" d="M 54 3 L 64.671875 3 L 64.671875 15 L 54 15 Z M 54 3 "/>
</clipPath>
</defs>
<path fill-rule="nonzero" fill="rgb(13.725281%, 12.156677%, 12.548828%)" fill-opacity="1" d="M 10.777344 22.335938 L 10.222656 22.335938 L 10.222656 22.296875 C 10.222656 21.789062 10.222656 21.226562 10.222656 20.753906 L 8.609375 20.753906 C 8.609375 21.621094 8.609375 21.929688 8.609375 22.253906 L 8.609375 22.289062 C 8.347656 22.289062 8.332031 22.289062 8.0625 22.289062 L 8.0625 22.253906 C 8.0625 21.800781 8.0625 21.570312 8.0625 20.175781 C 8.0625 19.550781 8.0625 19.335938 8.0625 19.058594 L 8.609375 19.058594 C 8.609375 19.328125 8.609375 19.703125 8.609375 20.332031 L 9.324219 20.332031 C 9.765625 20.332031 9.976562 20.332031 10.199219 20.332031 C 10.199219 19.453125 10.199219 19.359375 10.199219 19.074219 L 10.738281 19.074219 C 10.738281 19.515625 10.738281 19.824219 10.738281 20.609375 C 10.738281 21.398438 10.738281 21.847656 10.792969 22.265625 Z M 10.777344 22.335938 "/>
<path fill-rule="nonzero" fill="rgb(13.725281%, 12.156677%, 12.548828%)" fill-opacity="1" d="M 13.074219 21.039062 L 13.074219 21.789062 C 12.925781 21.917969 12.738281 21.992188 12.539062 21.988281 C 12.289062 22.015625 12.074219 21.820312 12.074219 21.570312 C 12.074219 21.15625 12.53125 21.097656 13.027344 21.03125 Z M 13.574219 20.933594 C 13.59375 20.742188 13.59375 20.546875 13.574219 20.355469 C 13.449219 20.019531 13.101562 19.824219 12.75 19.882812 C 12.460938 19.882812 12.175781 19.933594 11.902344 20.03125 C 11.902344 20.128906 11.902344 20.160156 11.902344 20.371094 L 11.941406 20.371094 C 12.175781 20.261719 12.429688 20.203125 12.691406 20.199219 C 12.847656 20.175781 13.007812 20.242188 13.101562 20.371094 C 13.136719 20.460938 13.148438 20.558594 13.140625 20.65625 L 13.058594 20.65625 C 12.179688 20.753906 11.632812 20.949219 11.632812 21.570312 C 11.628906 22.019531 12.019531 22.371094 12.464844 22.320312 C 12.710938 22.324219 12.953125 22.242188 13.148438 22.085938 L 13.148438 22.253906 L 13.640625 22.253906 C 13.625 21.945312 13.625 21.636719 13.640625 21.328125 Z M 13.574219 20.933594 "/>
<path fill-rule="nonzero" fill="rgb(13.725281%, 12.156677%, 12.548828%)" fill-opacity="1" d="M 16.636719 19.949219 C 16.636719 20.300781 16.636719 20.632812 16.636719 21 C 16.636719 21.570312 16.636719 21.90625 16.636719 22.109375 C 16.632812 22.171875 16.632812 22.234375 16.636719 22.296875 L 16.140625 22.296875 L 16.140625 22.125 C 15.921875 22.289062 15.660156 22.378906 15.390625 22.386719 C 15.191406 22.394531 15 22.339844 14.835938 22.230469 C 14.578125 21.96875 14.457031 21.601562 14.511719 21.238281 L 14.511719 20.953125 C 14.53125 20.628906 14.53125 20.300781 14.511719 19.972656 L 15.023438 19.972656 L 15 21 C 15 21.128906 15 21.21875 15 21.433594 C 15 21.652344 15 22.042969 15.511719 22.042969 C 15.734375 22.035156 15.949219 21.949219 16.117188 21.800781 C 16.117188 21.554688 16.117188 21.34375 16.117188 21.050781 C 16.117188 20.414062 16.117188 20.300781 16.117188 19.988281 L 16.117188 19.949219 C 16.34375 19.949219 16.394531 19.949219 16.621094 19.949219 Z M 16.636719 19.949219 "/>
<path fill-rule="nonzero" fill="rgb(13.725281%, 12.156677%, 12.548828%)" fill-opacity="1" d="M 18.667969 21.96875 C 18.667969 22.125 18.667969 22.15625 18.667969 22.289062 C 18.546875 22.324219 18.425781 22.339844 18.300781 22.335938 C 18.078125 22.359375 17.863281 22.269531 17.722656 22.09375 C 17.640625 21.960938 17.640625 21.847656 17.640625 21.34375 L 17.640625 20.316406 L 17.25 20.316406 C 17.25 20.175781 17.25 20.136719 17.25 19.988281 L 17.289062 19.988281 C 17.390625 19.988281 17.453125 19.988281 17.617188 19.988281 C 17.617188 19.890625 17.617188 19.792969 17.617188 19.695312 C 17.617188 19.597656 17.617188 19.523438 17.617188 19.433594 L 18.121094 19.304688 L 18.15625 19.304688 C 18.15625 19.605469 18.15625 19.664062 18.15625 20.003906 L 18.699219 20.003906 C 18.699219 20.121094 18.699219 20.175781 18.699219 20.324219 L 18.164062 20.324219 L 18.164062 21.179688 C 18.164062 21.238281 18.164062 21.503906 18.164062 21.5625 C 18.164062 21.898438 18.210938 22.003906 18.449219 22.003906 C 18.53125 22.015625 18.609375 22.015625 18.691406 22.003906 Z M 18.667969 21.96875 "/>
<path fill-rule="nonzero" fill="rgb(13.725281%, 12.156677%, 12.548828%)" fill-opacity="1" d="M 20.925781 20.84375 L 19.695312 20.84375 C 19.695312 20.484375 19.984375 20.199219 20.339844 20.199219 C 20.578125 20.191406 20.792969 20.339844 20.871094 20.566406 C 20.898438 20.65625 20.914062 20.75 20.925781 20.84375 Z M 21.292969 21.75 C 21.1875 21.835938 21.066406 21.90625 20.941406 21.953125 C 20.800781 21.996094 20.65625 22.019531 20.511719 22.019531 C 20.277344 22.03125 20.046875 21.941406 19.882812 21.773438 C 19.746094 21.613281 19.679688 21.40625 19.695312 21.195312 L 21.425781 21.195312 C 21.460938 20.847656 21.363281 20.5 21.15625 20.21875 C 20.949219 20.003906 20.660156 19.890625 20.363281 19.90625 C 18.691406 19.980469 18.804688 22.484375 20.476562 22.410156 C 20.734375 22.410156 20.992188 22.351562 21.226562 22.238281 L 21.261719 22.238281 C 21.265625 22.097656 21.277344 21.960938 21.300781 21.824219 Z M 21.292969 21.75 "/>
<path fill-rule="nonzero" fill="rgb(13.725281%, 12.156677%, 12.548828%)" fill-opacity="1" d="M 25.957031 21.953125 C 25.957031 22.109375 25.957031 22.148438 25.957031 22.296875 L 25.957031 22.335938 L 23.925781 22.335938 L 23.925781 22.296875 C 23.925781 21.9375 23.925781 21.691406 23.925781 20.84375 C 23.925781 19.996094 23.925781 19.628906 23.925781 19.101562 L 25.980469 19.101562 C 25.980469 19.238281 25.980469 19.296875 25.941406 19.460938 C 25.304688 19.460938 25.09375 19.460938 24.480469 19.460938 C 24.480469 19.882812 24.480469 20.015625 24.480469 20.445312 L 25.859375 20.445312 C 25.851562 20.5625 25.851562 20.679688 25.859375 20.796875 L 24.511719 20.796875 C 24.511719 21.328125 24.511719 21.457031 24.511719 21.890625 C 25.261719 21.890625 25.394531 21.890625 26.011719 21.890625 Z M 25.957031 21.953125 "/>
<path fill-rule="nonzero" fill="rgb(13.725281%, 12.156677%, 12.548828%)" fill-opacity="1" d="M 28.5 21.789062 C 28.5 21.984375 28.5 22.003906 28.453125 22.199219 C 28.246094 22.304688 28.015625 22.359375 27.78125 22.359375 C 27.089844 22.398438 26.515625 21.828125 26.558594 21.136719 C 26.503906 20.425781 27.078125 19.828125 27.789062 19.851562 C 28.015625 19.855469 28.246094 19.902344 28.453125 19.996094 C 28.453125 20.160156 28.453125 20.21875 28.453125 20.363281 C 28.296875 20.246094 28.105469 20.179688 27.90625 20.175781 C 27.433594 20.167969 27.070312 20.59375 27.15625 21.058594 C 27.15625 21.691406 27.53125 21.914062 27.90625 21.914062 C 28.117188 21.925781 28.324219 21.867188 28.5 21.75 Z M 28.5 21.789062 "/>
<path fill-rule="nonzero" fill="rgb(13.725281%, 12.156677%, 12.548828%)" fill-opacity="1" d="M 30.90625 21.121094 C 30.921875 21.328125 30.882812 21.539062 30.796875 21.726562 C 30.683594 21.929688 30.46875 22.050781 30.238281 22.042969 C 30.136719 22.042969 30.039062 22.019531 29.949219 21.976562 C 29.667969 21.796875 29.515625 21.472656 29.558594 21.140625 C 29.542969 20.917969 29.59375 20.691406 29.707031 20.496094 C 29.828125 20.324219 30.027344 20.222656 30.238281 20.226562 C 30.449219 20.214844 30.652344 20.3125 30.765625 20.488281 C 30.863281 20.683594 30.914062 20.902344 30.90625 21.121094 Z M 31.441406 21.121094 C 31.457031 20.796875 31.351562 20.480469 31.148438 20.226562 C 30.910156 20.007812 30.59375 19.890625 30.269531 19.90625 C 29.933594 19.882812 29.601562 20 29.355469 20.226562 C 28.90625 20.769531 28.90625 21.554688 29.355469 22.09375 C 29.859375 22.496094 30.574219 22.496094 31.078125 22.09375 C 31.238281 21.945312 31.351562 21.75 31.402344 21.539062 C 31.429688 21.394531 31.441406 21.246094 31.441406 21.097656 Z M 31.441406 21.121094 "/>
<path fill-rule="nonzero" fill="rgb(13.725281%, 12.156677%, 12.548828%)" fill-opacity="1" d="M 32.746094 22.328125 L 32.234375 22.328125 L 32.234375 22.289062 C 32.234375 21.96875 32.234375 21.539062 32.234375 20.664062 C 32.234375 20.03125 32.234375 19.351562 32.183594 18.757812 L 32.714844 18.660156 C 32.675781 19.265625 32.675781 19.875 32.675781 20.476562 C 32.675781 21.488281 32.675781 21.832031 32.714844 22.265625 Z M 32.746094 22.328125 "/>
<path fill-rule="nonzero" fill="rgb(13.725281%, 12.156677%, 12.548828%)" fill-opacity="1" d="M 35.25 20.84375 L 34.058594 20.84375 C 34.0625 20.488281 34.347656 20.203125 34.703125 20.199219 C 34.941406 20.191406 35.15625 20.339844 35.234375 20.566406 C 35.257812 20.65625 35.261719 20.75 35.25 20.84375 Z M 35.648438 21.75 C 35.546875 21.839844 35.429688 21.90625 35.300781 21.953125 C 35.164062 21.996094 35.019531 22.019531 34.875 22.019531 C 34.640625 22.03125 34.410156 21.941406 34.246094 21.773438 C 34.113281 21.609375 34.046875 21.402344 34.058594 21.195312 L 35.753906 21.195312 C 35.792969 20.847656 35.703125 20.5 35.496094 20.21875 C 35.285156 20.007812 34.996094 19.890625 34.695312 19.90625 C 33.023438 19.980469 33.136719 22.484375 34.808594 22.410156 C 35.066406 22.40625 35.324219 22.347656 35.558594 22.238281 C 35.558594 22.058594 35.558594 22.003906 35.601562 21.824219 Z M 35.648438 21.75 "/>
<path fill-rule="nonzero" fill="rgb(13.725281%, 12.156677%, 12.548828%)" fill-opacity="1" d="M 39.464844 20.488281 C 39.816406 20.640625 40.289062 20.835938 40.289062 21.421875 C 40.289062 22.003906 39.886719 22.402344 39.039062 22.402344 C 38.703125 22.40625 38.367188 22.339844 38.0625 22.199219 C 38.0625 22.035156 38.0625 21.953125 38.101562 21.773438 L 38.152344 21.773438 C 38.402344 21.949219 38.703125 22.042969 39.007812 22.042969 C 39.511719 22.042969 39.757812 21.796875 39.757812 21.523438 C 39.757812 21.253906 39.472656 21.074219 39.148438 20.960938 L 38.910156 20.859375 C 38.558594 20.707031 38.101562 20.503906 38.101562 19.949219 C 38.09375 19.777344 38.148438 19.605469 38.25 19.460938 C 38.511719 19.175781 38.890625 19.027344 39.277344 19.058594 C 39.578125 19.058594 39.875 19.109375 40.15625 19.207031 L 40.15625 19.246094 C 40.15625 19.417969 40.15625 19.476562 40.15625 19.648438 L 40.117188 19.648438 C 39.867188 19.515625 39.589844 19.445312 39.308594 19.441406 C 38.902344 19.441406 38.648438 19.621094 38.648438 19.890625 C 38.65625 20.050781 38.753906 20.1875 38.902344 20.25 C 39.019531 20.320312 39.148438 20.378906 39.277344 20.421875 Z M 39.464844 20.488281 "/>
<path fill-rule="nonzero" fill="rgb(13.725281%, 12.156677%, 12.548828%)" fill-opacity="1" d="M 41.578125 21.976562 C 41.578125 21.710938 41.578125 21.433594 41.578125 21.171875 C 41.578125 20.910156 41.578125 20.699219 41.578125 20.460938 C 41.742188 20.339844 41.9375 20.269531 42.140625 20.265625 C 42.542969 20.273438 42.847656 20.617188 42.808594 21.015625 C 42.832031 21.582031 42.34375 22.03125 41.78125 21.96875 Z M 41.578125 19.933594 C 41.355469 19.980469 41.300781 19.996094 41.0625 20.023438 C 41.117188 20.542969 41.136719 21.0625 41.128906 21.585938 L 41.128906 22.402344 C 41.128906 22.875 41.128906 23.152344 41.128906 23.445312 L 41.648438 23.445312 C 41.648438 23.011719 41.648438 22.890625 41.648438 22.34375 L 41.863281 22.34375 C 42.660156 22.429688 43.355469 21.8125 43.363281 21.015625 C 43.410156 20.402344 42.921875 19.882812 42.308594 19.890625 C 42.035156 19.878906 41.769531 19.964844 41.558594 20.136719 Z M 41.578125 19.933594 "/>
<path fill-rule="nonzero" fill="rgb(13.725281%, 12.156677%, 12.548828%)" fill-opacity="1" d="M 45.75 20.84375 L 44.519531 20.84375 C 44.523438 20.488281 44.808594 20.203125 45.164062 20.199219 C 45.402344 20.191406 45.617188 20.339844 45.699219 20.566406 C 45.730469 20.652344 45.75 20.746094 45.75 20.84375 Z M 45.75 18.914062 L 45.148438 18.914062 C 45.0625 19.15625 44.960938 19.390625 44.851562 19.621094 L 45.210938 19.621094 C 45.367188 19.375 45.539062 19.136719 45.71875 18.90625 Z M 46.109375 21.75 C 46.003906 21.839844 45.886719 21.90625 45.757812 21.953125 C 45.621094 21.996094 45.476562 22.019531 45.328125 22.019531 C 45.089844 22.027344 44.859375 21.925781 44.699219 21.75 C 44.574219 21.585938 44.507812 21.378906 44.519531 21.171875 L 46.214844 21.171875 C 46.257812 20.824219 46.164062 20.476562 45.953125 20.199219 C 45.742188 19.980469 45.449219 19.867188 45.148438 19.882812 C 43.480469 19.960938 43.601562 22.46875 45.269531 22.386719 C 45.53125 22.386719 45.785156 22.328125 46.019531 22.214844 C 46.019531 22.035156 46.019531 21.984375 46.058594 21.800781 Z M 46.109375 21.75 "/>
<path fill-rule="nonzero" fill="rgb(13.725281%, 12.156677%, 12.548828%)" fill-opacity="1" d="M 48.832031 21.789062 C 48.832031 21.984375 48.832031 22.003906 48.789062 22.199219 C 48.578125 22.304688 48.347656 22.359375 48.113281 22.359375 C 47.421875 22.394531 46.855469 21.824219 46.898438 21.136719 C 46.84375 20.429688 47.414062 19.832031 48.121094 19.851562 C 48.351562 19.851562 48.578125 19.898438 48.789062 19.996094 C 48.789062 20.160156 48.789062 20.21875 48.75 20.363281 C 48.59375 20.246094 48.40625 20.179688 48.210938 20.175781 C 47.738281 20.167969 47.375 20.59375 47.460938 21.058594 C 47.460938 21.691406 47.835938 21.914062 48.210938 21.914062 C 48.441406 21.917969 48.664062 21.835938 48.839844 21.683594 Z M 48.832031 21.789062 "/>
<path fill-rule="nonzero" fill="rgb(13.725281%, 12.156677%, 12.548828%)" fill-opacity="1" d="M 49.988281 22.328125 L 49.453125 22.328125 L 49.453125 22.289062 C 49.453125 22.050781 49.453125 21.839844 49.453125 21.324219 C 49.472656 20.882812 49.453125 20.445312 49.402344 20.011719 L 49.402344 19.972656 C 49.613281 19.972656 49.6875 19.933594 49.933594 19.882812 L 49.980469 19.882812 C 49.980469 20.121094 49.980469 20.371094 49.980469 20.960938 C 49.980469 21.816406 49.980469 21.9375 49.980469 22.246094 Z M 49.988281 19.265625 C 49.734375 19.265625 49.679688 19.265625 49.449219 19.265625 L 49.449219 19.078125 C 49.449219 18.996094 49.449219 18.929688 49.449219 18.832031 L 49.988281 18.789062 Z M 49.988281 19.265625 "/>
<path fill-rule="nonzero" fill="rgb(13.725281%, 12.156677%, 12.548828%)" fill-opacity="1" d="M 52.261719 21.039062 L 52.261719 21.789062 C 52.113281 21.917969 51.925781 21.992188 51.726562 21.988281 C 51.476562 22.015625 51.261719 21.820312 51.261719 21.570312 C 51.261719 21.15625 51.71875 21.097656 52.214844 21.03125 Z M 52.761719 20.933594 C 52.785156 20.742188 52.785156 20.546875 52.761719 20.355469 C 52.664062 19.996094 52.3125 19.882812 51.945312 19.882812 C 51.660156 19.882812 51.375 19.933594 51.105469 20.03125 C 51.105469 20.128906 51.105469 20.160156 51.105469 20.371094 C 51.339844 20.261719 51.597656 20.203125 51.855469 20.199219 C 52.011719 20.175781 52.167969 20.242188 52.261719 20.371094 C 52.300781 20.460938 52.316406 20.558594 52.304688 20.65625 L 52.222656 20.65625 C 51.34375 20.753906 50.796875 20.949219 50.796875 21.570312 C 50.796875 22.015625 51.179688 22.363281 51.621094 22.320312 C 51.871094 22.320312 52.113281 22.238281 52.3125 22.085938 L 52.3125 22.253906 L 52.808594 22.253906 C 52.792969 21.945312 52.792969 21.636719 52.808594 21.328125 Z M 52.761719 20.933594 "/>
<path fill-rule="nonzero" fill="rgb(13.725281%, 12.156677%, 12.548828%)" fill-opacity="1" d="M 54.195312 22.328125 L 53.675781 22.328125 L 53.675781 22.289062 C 53.675781 21.96875 53.675781 21.539062 53.675781 20.664062 C 53.675781 20.03125 53.675781 19.351562 53.625 18.757812 C 53.863281 18.71875 53.910156 18.710938 54.148438 18.660156 C 54.148438 19.265625 54.148438 19.875 54.148438 20.476562 C 54.148438 21.488281 54.148438 21.832031 54.1875 22.265625 Z M 54.195312 22.328125 "/>
<path fill-rule="nonzero" fill="rgb(13.725281%, 12.156677%, 12.548828%)" fill-opacity="1" d="M 55.640625 22.328125 L 55.109375 22.328125 L 55.109375 22.289062 C 55.109375 22.050781 55.109375 21.839844 55.109375 21.324219 C 55.128906 20.882812 55.113281 20.445312 55.066406 20.011719 L 55.066406 19.972656 C 55.242188 19.953125 55.417969 19.921875 55.589844 19.882812 L 55.640625 19.882812 C 55.640625 20.121094 55.640625 20.371094 55.640625 20.960938 C 55.640625 21.816406 55.640625 21.9375 55.640625 22.246094 Z M 55.640625 19.265625 C 55.386719 19.265625 55.335938 19.265625 55.09375 19.265625 C 55.097656 19.203125 55.097656 19.140625 55.09375 19.078125 C 55.09375 18.996094 55.09375 18.929688 55.09375 18.832031 L 55.648438 18.75 C 55.640625 18.894531 55.640625 19.039062 55.648438 19.183594 Z M 55.640625 19.265625 "/>
<path fill-rule="nonzero" fill="rgb(13.725281%, 12.156677%, 12.548828%)" fill-opacity="1" d="M 57.578125 20.933594 C 57.78125 20.992188 58.222656 21.136719 58.222656 21.621094 C 58.222656 21.839844 58.121094 22.042969 57.945312 22.171875 C 57.722656 22.320312 57.460938 22.394531 57.195312 22.386719 C 56.96875 22.390625 56.742188 22.351562 56.527344 22.273438 L 56.453125 22.273438 L 56.453125 22.238281 C 56.460938 22.109375 56.460938 21.976562 56.453125 21.847656 L 56.503906 21.847656 C 56.695312 22 56.9375 22.078125 57.179688 22.074219 C 57.570312 22.074219 57.710938 21.871094 57.710938 21.726562 C 57.710938 21.585938 57.503906 21.441406 57.203125 21.351562 L 57 21.253906 C 56.804688 21.195312 56.363281 21.058594 56.363281 20.585938 C 56.363281 20.113281 56.804688 19.882812 57.34375 19.882812 C 57.585938 19.878906 57.824219 19.921875 58.050781 20.011719 C 58.050781 20.175781 58.050781 20.199219 58.003906 20.371094 L 57.960938 20.371094 C 57.78125 20.277344 57.578125 20.234375 57.375 20.25 C 57.308594 20.242188 57.238281 20.242188 57.171875 20.25 C 57.023438 20.25 56.902344 20.386719 56.902344 20.527344 C 56.902344 20.671875 57.097656 20.789062 57.40625 20.871094 Z M 57.578125 20.933594 "/>
<path fill-rule="nonzero" fill="rgb(13.725281%, 12.156677%, 12.548828%)" fill-opacity="1" d="M 60.523438 20.84375 L 59.300781 20.84375 C 59.300781 20.484375 59.589844 20.199219 59.949219 20.199219 C 60.183594 20.191406 60.398438 20.339844 60.480469 20.566406 C 60.511719 20.652344 60.527344 20.75 60.523438 20.84375 Z M 60.523438 18.914062 L 59.960938 18.914062 C 59.851562 19.214844 59.707031 19.507812 59.65625 19.621094 L 60 19.621094 C 60.15625 19.375 60.328125 19.136719 60.511719 18.90625 Z M 60.890625 21.75 C 60.789062 21.839844 60.667969 21.90625 60.539062 21.953125 C 60.402344 21.996094 60.257812 22.019531 60.113281 22.019531 C 59.875 22.03125 59.648438 21.941406 59.484375 21.773438 C 59.355469 21.609375 59.292969 21.402344 59.300781 21.195312 L 60.996094 21.195312 C 61.035156 20.847656 60.941406 20.5 60.734375 20.21875 C 60.546875 20.011719 60.28125 19.890625 60 19.882812 C 58.328125 19.960938 58.449219 22.46875 60.121094 22.386719 C 60.378906 22.386719 60.636719 22.328125 60.871094 22.214844 C 60.878906 22.078125 60.894531 21.9375 60.914062 21.800781 Z M 60.890625 21.75 "/>
<path fill-rule="nonzero" fill="rgb(13.725281%, 12.156677%, 12.548828%)" fill-opacity="1" d="M 63.398438 20.84375 L 62.167969 20.84375 C 62.175781 20.488281 62.460938 20.207031 62.8125 20.199219 C 63.050781 20.191406 63.269531 20.339844 63.351562 20.566406 C 63.378906 20.65625 63.394531 20.75 63.398438 20.84375 Z M 63.75 21.75 C 63.644531 21.839844 63.527344 21.90625 63.398438 21.953125 C 63.257812 21.996094 63.113281 22.019531 62.96875 22.019531 C 62.734375 22.03125 62.503906 21.941406 62.339844 21.773438 C 62.210938 21.609375 62.144531 21.402344 62.152344 21.195312 L 63.855469 21.195312 C 63.890625 20.847656 63.796875 20.5 63.59375 20.21875 C 63.382812 20.003906 63.089844 19.890625 62.789062 19.90625 C 61.121094 19.984375 61.238281 22.488281 62.910156 22.410156 C 63.167969 22.410156 63.425781 22.351562 63.660156 22.238281 C 63.652344 22.101562 63.652344 21.960938 63.660156 21.824219 Z M 63.75 21.75 "/>
<g clip-path="url(#clip-0)">
<path fill-rule="nonzero" fill="rgb(13.725281%, 12.156677%, 12.548828%)" fill-opacity="1" d="M 14.796875 27.269531 C 14.644531 27.398438 14.449219 27.472656 14.25 27.472656 C 14.058594 27.476562 13.878906 27.402344 13.746094 27.261719 C 13.617188 27.105469 13.554688 26.902344 13.566406 26.699219 C 13.546875 26.421875 13.652344 26.144531 13.851562 25.949219 C 14.054688 25.796875 14.304688 25.71875 14.558594 25.734375 L 14.804688 25.734375 C 14.804688 26.527344 14.804688 26.664062 14.796875 27.269531 Z M 14.796875 24.269531 C 14.835938 24.640625 14.847656 25.007812 14.84375 25.378906 L 14.558594 25.378906 C 14.171875 25.355469 13.792969 25.46875 13.484375 25.703125 C 13.195312 25.949219 13.035156 26.3125 13.050781 26.691406 C 12.996094 27.335938 13.507812 27.882812 14.152344 27.878906 C 14.398438 27.878906 14.636719 27.796875 14.828125 27.644531 L 14.828125 27.816406 L 15.367188 27.816406 C 15.367188 27.503906 15.367188 27.15625 15.367188 26.445312 C 15.367188 25.988281 15.367188 24.847656 15.367188 24.195312 C 15.148438 24.238281 15.097656 24.253906 14.851562 24.292969 Z M 14.796875 24.269531 "/>
</g>
<g clip-path="url(#clip-1)">
<path fill-rule="nonzero" fill="rgb(13.725281%, 12.156677%, 12.548828%)" fill-opacity="1" d="M 17.851562 26.339844 C 17.40625 26.339844 17.21875 26.339844 16.628906 26.339844 C 16.636719 25.988281 16.921875 25.707031 17.273438 25.703125 C 17.507812 25.695312 17.722656 25.839844 17.804688 26.0625 C 17.835938 26.152344 17.851562 26.246094 17.851562 26.339844 Z M 18.226562 27.246094 C 18.121094 27.332031 18 27.402344 17.871094 27.449219 C 17.734375 27.496094 17.589844 27.523438 17.445312 27.523438 C 17.210938 27.53125 16.980469 27.441406 16.816406 27.277344 C 16.683594 27.113281 16.617188 26.910156 16.628906 26.699219 L 18.359375 26.699219 C 18.398438 26.355469 18.304688 26.007812 18.097656 25.726562 C 17.886719 25.511719 17.59375 25.398438 17.296875 25.410156 C 15.726562 25.578125 15.832031 27.894531 17.40625 27.921875 C 17.679688 27.929688 17.949219 27.871094 18.195312 27.75 C 18.199219 27.613281 18.210938 27.480469 18.234375 27.34375 Z M 18.226562 27.246094 "/>
</g>
<g clip-path="url(#clip-2)">
<path fill-rule="nonzero" fill="rgb(13.725281%, 12.156677%, 12.548828%)" fill-opacity="1" d="M 22.035156 25.996094 C 22.386719 26.136719 22.859375 26.332031 22.859375 26.925781 C 22.859375 27.515625 22.453125 27.898438 21.609375 27.898438 C 21.273438 27.90625 20.945312 27.839844 20.640625 27.703125 C 20.640625 27.546875 20.640625 27.457031 20.675781 27.285156 L 20.730469 27.285156 C 20.984375 27.460938 21.285156 27.554688 21.59375 27.554688 C 22.09375 27.554688 22.304688 27.316406 22.304688 27.039062 C 22.304688 26.761719 22.019531 26.59375 21.703125 26.476562 L 21.457031 26.378906 C 21.113281 26.226562 20.648438 26.023438 20.648438 25.460938 C 20.640625 25.289062 20.695312 25.121094 20.796875 24.984375 C 21.058594 24.691406 21.4375 24.542969 21.824219 24.578125 C 22.125 24.578125 22.417969 24.625 22.703125 24.71875 C 22.703125 24.898438 22.703125 24.960938 22.65625 25.125 C 22.414062 24.988281 22.136719 24.914062 21.855469 24.914062 C 21.449219 24.914062 21.1875 25.085938 21.1875 25.363281 C 21.195312 25.523438 21.296875 25.664062 21.441406 25.726562 C 21.5625 25.789062 21.6875 25.84375 21.816406 25.890625 Z M 22.035156 25.996094 "/>
</g>
<g clip-path="url(#clip-3)">
<path fill-rule="nonzero" fill="rgb(13.725281%, 12.156677%, 12.548828%)" fill-opacity="1" d="M 25.785156 25.453125 C 25.785156 25.808594 25.785156 26.128906 25.785156 26.503906 C 25.785156 27.066406 25.785156 27.414062 25.785156 27.609375 C 25.785156 27.675781 25.785156 27.742188 25.785156 27.800781 L 25.28125 27.800781 L 25.28125 27.609375 C 25.066406 27.769531 24.804688 27.863281 24.53125 27.871094 C 24.332031 27.875 24.136719 27.820312 23.96875 27.710938 C 23.71875 27.449219 23.601562 27.082031 23.65625 26.722656 L 23.65625 26.4375 C 23.65625 25.777344 23.65625 25.6875 23.65625 25.453125 C 23.886719 25.453125 23.925781 25.453125 24.15625 25.453125 L 24.15625 26.460938 C 24.15625 26.585938 24.15625 26.675781 24.15625 26.902344 C 24.15625 27.128906 24.15625 27.511719 24.660156 27.511719 C 24.882812 27.5 25.097656 27.414062 25.265625 27.269531 C 25.265625 27.023438 25.265625 26.804688 25.265625 26.519531 C 25.265625 25.875 25.265625 25.769531 25.265625 25.449219 C 25.4375 25.457031 25.609375 25.457031 25.777344 25.449219 Z M 25.785156 25.453125 "/>
</g>
<g clip-path="url(#clip-4)">
<path fill-rule="nonzero" fill="rgb(13.725281%, 12.156677%, 12.548828%)" fill-opacity="1" d="M 27.234375 27.832031 L 26.699219 27.832031 C 26.699219 27.59375 26.699219 27.375 26.699219 26.863281 C 26.714844 26.410156 26.699219 25.953125 26.65625 25.5 C 26.863281 25.5 26.941406 25.5 27.1875 25.410156 L 27.234375 25.410156 C 27.234375 25.640625 27.234375 25.890625 27.234375 26.488281 C 27.234375 27.34375 27.234375 27.457031 27.234375 27.773438 Z M 27.234375 24.765625 L 26.691406 24.765625 L 26.691406 24.578125 C 26.691406 24.496094 26.691406 24.421875 26.691406 24.328125 L 26.730469 24.328125 L 27.269531 24.285156 C 27.261719 24.429688 27.261719 24.574219 27.269531 24.71875 Z M 27.234375 24.765625 "/>
</g>
<g clip-path="url(#clip-5)">
<path fill-rule="nonzero" fill="rgb(13.725281%, 12.156677%, 12.548828%)" fill-opacity="1" d="M 29.167969 26.4375 C 29.363281 26.496094 29.804688 26.640625 29.804688 27.128906 C 29.808594 27.339844 29.707031 27.542969 29.535156 27.667969 C 29.304688 27.828125 29.027344 27.90625 28.746094 27.890625 C 28.519531 27.894531 28.292969 27.855469 28.078125 27.773438 L 28.011719 27.773438 L 28.011719 27.726562 C 28.019531 27.601562 28.019531 27.472656 28.011719 27.34375 L 28.066406 27.34375 C 28.257812 27.492188 28.496094 27.566406 28.738281 27.5625 C 29.128906 27.5625 29.273438 27.359375 29.273438 27.21875 C 29.273438 27.074219 29.0625 26.941406 28.761719 26.84375 L 28.605469 26.796875 C 28.410156 26.738281 27.960938 26.601562 27.960938 26.128906 C 27.960938 25.65625 28.410156 25.417969 28.949219 25.417969 C 29.191406 25.417969 29.429688 25.460938 29.65625 25.546875 L 29.65625 25.582031 C 29.65625 25.746094 29.65625 25.769531 29.65625 25.941406 L 29.609375 25.941406 C 29.421875 25.824219 29.203125 25.761719 28.980469 25.761719 L 28.769531 25.761719 C 28.621094 25.761719 28.5 25.898438 28.5 26.039062 C 28.5 26.183594 28.703125 26.296875 29.011719 26.386719 Z M 29.167969 26.4375 "/>
</g>
<g clip-path="url(#clip-6)">
<path fill-rule="nonzero" fill="rgb(13.725281%, 12.156677%, 12.548828%)" fill-opacity="1" d="M 31.5 26.4375 C 31.695312 26.496094 32.136719 26.640625 32.136719 27.128906 C 32.140625 27.339844 32.039062 27.542969 31.867188 27.667969 C 31.648438 27.820312 31.386719 27.898438 31.117188 27.890625 C 30.890625 27.898438 30.664062 27.855469 30.449219 27.773438 L 30.375 27.773438 L 30.375 27.726562 C 30.375 27.546875 30.375 27.523438 30.375 27.34375 L 30.425781 27.34375 C 30.621094 27.488281 30.859375 27.566406 31.101562 27.5625 C 31.492188 27.5625 31.636719 27.359375 31.636719 27.21875 C 31.636719 27.074219 31.425781 26.941406 31.125 26.84375 L 30.96875 26.796875 C 30.765625 26.738281 30.328125 26.601562 30.328125 26.128906 C 30.328125 25.65625 30.765625 25.417969 31.320312 25.417969 C 31.558594 25.417969 31.792969 25.460938 32.015625 25.546875 L 32.015625 25.582031 C 32.015625 25.746094 32.015625 25.769531 31.972656 25.941406 C 31.78125 25.824219 31.558594 25.761719 31.335938 25.761719 C 31.269531 25.753906 31.199219 25.753906 31.132812 25.761719 C 30.984375 25.761719 30.855469 25.898438 30.855469 26.039062 C 30.855469 26.183594 31.058594 26.296875 31.363281 26.386719 Z M 31.5 26.4375 "/>
</g>
<g clip-path="url(#clip-7)">
<path fill-rule="nonzero" fill="rgb(13.725281%, 12.156677%, 12.548828%)" fill-opacity="1" d="M 34.5 26.339844 C 34.058594 26.339844 33.871094 26.339844 33.277344 26.339844 C 33.285156 25.988281 33.570312 25.707031 33.921875 25.703125 C 34.160156 25.695312 34.375 25.839844 34.453125 26.0625 C 34.484375 26.152344 34.5 26.246094 34.5 26.339844 Z M 34.867188 27.246094 C 34.761719 27.335938 34.644531 27.402344 34.515625 27.449219 C 34.378906 27.496094 34.238281 27.523438 34.09375 27.523438 C 33.621094 27.570312 33.226562 27.171875 33.277344 26.699219 L 34.972656 26.699219 C 35.011719 26.351562 34.917969 26.003906 34.710938 25.726562 C 34.5 25.507812 34.207031 25.394531 33.90625 25.410156 C 32.335938 25.582031 32.445312 27.902344 34.027344 27.921875 C 34.300781 27.929688 34.570312 27.871094 34.816406 27.75 C 34.824219 27.613281 34.835938 27.480469 34.859375 27.34375 Z M 34.867188 27.246094 "/>
</g>
<g clip-path="url(#clip-8)">
<path fill-rule="nonzero" fill="rgb(13.725281%, 12.156677%, 12.548828%)" fill-opacity="1" d="M 39.128906 26.617188 C 39.136719 26.828125 39.097656 27.039062 39.015625 27.234375 C 38.90625 27.433594 38.6875 27.554688 38.460938 27.539062 C 38.359375 27.542969 38.257812 27.523438 38.167969 27.480469 C 37.886719 27.300781 37.738281 26.976562 37.777344 26.648438 C 37.761719 26.421875 37.816406 26.191406 37.925781 25.996094 C 38.046875 25.820312 38.25 25.722656 38.460938 25.734375 C 38.667969 25.71875 38.871094 25.820312 38.984375 25.996094 C 39.078125 26.1875 39.128906 26.402344 39.128906 26.617188 Z M 39.660156 26.617188 C 39.671875 26.292969 39.566406 25.976562 39.359375 25.726562 C 39.125 25.496094 38.808594 25.375 38.484375 25.394531 C 37.765625 25.335938 37.167969 25.9375 37.238281 26.65625 C 37.222656 27 37.34375 27.339844 37.582031 27.59375 C 37.820312 27.808594 38.132812 27.917969 38.453125 27.898438 C 38.761719 27.921875 39.0625 27.820312 39.300781 27.621094 C 39.460938 27.472656 39.570312 27.277344 39.613281 27.058594 C 39.652344 26.910156 39.667969 26.757812 39.660156 26.601562 Z M 39.660156 26.617188 "/>
</g>
<g clip-path="url(#clip-9)">
<path fill-rule="nonzero" fill="rgb(13.725281%, 12.156677%, 12.548828%)" fill-opacity="1" d="M 42.277344 27.285156 C 42.277344 27.488281 42.277344 27.511719 42.234375 27.699219 C 42.023438 27.804688 41.792969 27.859375 41.558594 27.855469 C 40.867188 27.890625 40.300781 27.320312 40.34375 26.632812 C 40.289062 25.925781 40.859375 25.332031 41.566406 25.351562 C 41.796875 25.351562 42.027344 25.402344 42.238281 25.5 C 42.238281 25.664062 42.238281 25.726562 42.238281 25.859375 C 42.082031 25.746094 41.890625 25.683594 41.691406 25.679688 C 41.21875 25.671875 40.855469 26.097656 40.941406 26.566406 C 40.882812 27.015625 41.238281 27.417969 41.691406 27.414062 C 41.917969 27.410156 42.140625 27.332031 42.316406 27.1875 Z M 42.277344 27.285156 "/>
</g>
<g clip-path="url(#clip-10)">
<path fill-rule="nonzero" fill="rgb(13.725281%, 12.156677%, 12.548828%)" fill-opacity="1" d="M 44.738281 27.285156 C 44.738281 27.488281 44.738281 27.511719 44.738281 27.699219 C 44.527344 27.804688 44.292969 27.859375 44.054688 27.855469 C 43.347656 27.941406 42.726562 27.375 42.75 26.664062 C 42.699219 25.957031 43.273438 25.359375 43.980469 25.378906 C 44.214844 25.382812 44.441406 25.433594 44.65625 25.53125 C 44.65625 25.695312 44.65625 25.753906 44.65625 25.890625 C 44.496094 25.777344 44.304688 25.714844 44.109375 25.710938 C 43.632812 25.703125 43.273438 26.128906 43.359375 26.59375 C 43.359375 27.226562 43.734375 27.441406 44.109375 27.441406 C 44.335938 27.441406 44.558594 27.359375 44.738281 27.21875 Z M 44.738281 27.285156 "/>
</g>
<g clip-path="url(#clip-11)">
<path fill-rule="nonzero" fill="rgb(13.725281%, 12.156677%, 12.548828%)" fill-opacity="1" d="M 45.898438 27.832031 L 45.359375 27.832031 C 45.359375 27.59375 45.359375 27.375 45.359375 26.863281 C 45.382812 26.410156 45.367188 25.953125 45.316406 25.5 C 45.523438 25.5 45.601562 25.5 45.839844 25.410156 L 45.890625 25.410156 C 45.890625 25.640625 45.890625 25.890625 45.890625 26.488281 C 45.890625 27.34375 45.890625 27.457031 45.890625 27.773438 Z M 45.898438 24.765625 L 45.359375 24.765625 L 45.359375 24.578125 C 45.359375 24.496094 45.359375 24.421875 45.359375 24.328125 L 45.898438 24.285156 C 45.890625 24.429688 45.890625 24.574219 45.898438 24.71875 Z M 45.898438 24.765625 "/>
</g>
<g clip-path="url(#clip-12)">
<path fill-rule="nonzero" fill="rgb(13.725281%, 12.156677%, 12.548828%)" fill-opacity="1" d="M 48.433594 27.269531 C 48.285156 27.398438 48.09375 27.472656 47.894531 27.472656 C 47.703125 27.476562 47.515625 27.402344 47.386719 27.261719 C 47.257812 27.105469 47.191406 26.902344 47.203125 26.699219 C 47.183594 26.421875 47.289062 26.144531 47.488281 25.949219 C 47.695312 25.796875 47.945312 25.71875 48.203125 25.734375 L 48.441406 25.734375 C 48.449219 26.527344 48.449219 26.664062 48.433594 27.269531 Z M 48.433594 24.269531 C 48.472656 24.640625 48.488281 25.007812 48.480469 25.378906 L 48.195312 25.378906 C 47.808594 25.355469 47.429688 25.46875 47.121094 25.703125 C 46.835938 25.949219 46.675781 26.3125 46.695312 26.691406 C 46.640625 27.332031 47.148438 27.878906 47.789062 27.878906 C 48.035156 27.882812 48.273438 27.800781 48.464844 27.644531 L 48.464844 27.816406 L 48.960938 27.816406 C 48.960938 27.503906 48.960938 27.15625 48.960938 26.445312 C 48.960938 25.988281 48.960938 24.847656 48.960938 24.195312 C 48.742188 24.238281 48.691406 24.253906 48.433594 24.292969 Z M 48.433594 24.269531 "/>
</g>
<g clip-path="url(#clip-13)">
<path fill-rule="nonzero" fill="rgb(13.725281%, 12.156677%, 12.548828%)" fill-opacity="1" d="M 51.496094 26.339844 C 51.046875 26.339844 50.859375 26.339844 50.265625 26.339844 C 50.273438 25.988281 50.558594 25.707031 50.910156 25.703125 C 51.148438 25.691406 51.363281 25.839844 51.441406 26.0625 C 51.476562 26.152344 51.492188 26.246094 51.496094 26.339844 Z M 51.863281 27.246094 C 51.757812 27.332031 51.636719 27.402344 51.511719 27.449219 C 51.371094 27.496094 51.226562 27.523438 51.082031 27.523438 C 50.847656 27.53125 50.621094 27.441406 50.453125 27.277344 C 50.320312 27.113281 50.25 26.910156 50.25 26.699219 L 51.945312 26.699219 C 51.980469 26.355469 51.886719 26.007812 51.683594 25.726562 C 51.472656 25.511719 51.179688 25.394531 50.878906 25.410156 C 49.308594 25.582031 49.417969 27.902344 51 27.921875 C 51.261719 27.925781 51.519531 27.863281 51.75 27.742188 C 51.742188 27.609375 51.742188 27.472656 51.75 27.335938 Z M 51.863281 27.246094 "/>
</g>
<g clip-path="url(#clip-14)">
<path fill-rule="nonzero" fill="rgb(13.725281%, 12.156677%, 12.548828%)" fill-opacity="1" d="M 54.90625 27.832031 L 54.421875 27.832031 C 54.421875 27.78125 54.421875 27.726562 54.421875 27.683594 L 54.421875 27 C 54.445312 26.714844 54.445312 26.429688 54.421875 26.144531 C 54.382812 25.933594 54.191406 25.78125 53.976562 25.792969 C 53.738281 25.804688 53.511719 25.898438 53.332031 26.054688 C 53.332031 26.851562 53.332031 27.269531 53.332031 27.808594 L 52.824219 27.808594 C 52.824219 27.554688 52.824219 27.300781 52.824219 26.960938 C 52.824219 26.210938 52.824219 25.828125 52.761719 25.523438 L 53.28125 25.433594 L 53.28125 25.671875 C 53.53125 25.492188 53.832031 25.394531 54.140625 25.386719 C 54.28125 25.382812 54.421875 25.410156 54.546875 25.46875 C 54.671875 25.542969 54.769531 25.648438 54.832031 25.777344 C 54.894531 25.957031 54.917969 26.144531 54.898438 26.332031 L 54.898438 26.871094 C 54.898438 27.414062 54.898438 27.621094 54.898438 27.796875 Z M 54.90625 27.832031 "/>
</g>
<g clip-path="url(#clip-15)">
<path fill-rule="nonzero" fill="rgb(13.725281%, 12.156677%, 12.548828%)" fill-opacity="1" d="M 56.933594 27.472656 C 56.933594 27.621094 56.933594 27.660156 56.933594 27.789062 C 56.808594 27.804688 56.6875 27.804688 56.566406 27.789062 C 56.347656 27.808594 56.128906 27.722656 55.988281 27.554688 C 55.90625 27.421875 55.90625 27.308594 55.90625 26.761719 L 55.90625 25.816406 L 55.550781 25.816406 C 55.542969 25.707031 55.523438 25.605469 55.5 25.5 L 55.828125 25.5 C 55.828125 25.402344 55.828125 25.304688 55.828125 25.207031 C 55.828125 25.109375 55.828125 25.027344 55.828125 24.945312 C 56 24.914062 56.167969 24.871094 56.332031 24.816406 C 56.332031 25.125 56.332031 25.183594 56.332031 25.523438 L 56.878906 25.523438 C 56.871094 25.628906 56.871094 25.738281 56.878906 25.84375 L 56.347656 25.84375 L 56.347656 26.699219 C 56.347656 26.753906 56.347656 27.015625 56.347656 27.082031 C 56.347656 27.421875 56.390625 27.523438 56.632812 27.523438 C 56.714844 27.523438 56.796875 27.511719 56.871094 27.480469 Z M 56.933594 27.472656 "/>
</g>
<g clip-path="url(#clip-16)">
<path fill-rule="nonzero" fill="rgb(13.725281%, 12.156677%, 12.548828%)" fill-opacity="1" d="M 58.925781 26.542969 L 58.925781 27.292969 C 58.785156 27.429688 58.59375 27.503906 58.394531 27.503906 C 58.144531 27.53125 57.929688 27.332031 57.929688 27.082031 C 57.929688 26.671875 58.386719 26.601562 58.882812 26.535156 Z M 59.429688 26.429688 C 59.445312 26.238281 59.445312 26.042969 59.429688 25.851562 C 59.304688 25.523438 58.960938 25.324219 58.613281 25.378906 C 58.320312 25.371094 58.027344 25.414062 57.75 25.5 C 57.75 25.597656 57.75 25.628906 57.75 25.835938 C 57.984375 25.730469 58.242188 25.671875 58.5 25.664062 C 58.738281 25.664062 58.851562 25.746094 58.898438 25.828125 C 58.945312 25.917969 58.960938 26.015625 58.949219 26.113281 L 58.859375 26.113281 C 57.984375 26.21875 57.433594 26.414062 57.433594 27.03125 C 57.433594 27.480469 57.820312 27.828125 58.265625 27.78125 C 58.515625 27.78125 58.753906 27.699219 58.949219 27.546875 L 58.949219 27.710938 L 59.445312 27.710938 C 59.429688 27.40625 59.429688 27.097656 59.445312 26.789062 Z M 59.429688 26.429688 "/>
</g>
<g clip-path="url(#clip-17)">
<path fill-rule="nonzero" fill="rgb(13.725281%, 12.156677%, 12.548828%)" fill-opacity="1" d="M 60.863281 27.832031 L 60.34375 27.832031 C 60.34375 27.503906 60.34375 27.082031 60.34375 26.203125 C 60.34375 25.574219 60.34375 24.890625 60.300781 24.300781 L 60.832031 24.203125 C 60.796875 24.808594 60.796875 25.417969 60.796875 26.023438 C 60.796875 27.03125 60.796875 27.382812 60.839844 27.816406 Z M 60.863281 27.832031 "/>
</g>
<g clip-path="url(#clip-18)">
<path fill-rule="nonzero" fill="rgb(13.725281%, 12.156677%, 12.548828%)" fill-opacity="1" d="M 63.398438 26.339844 C 62.949219 26.339844 62.761719 26.339844 62.167969 26.339844 C 62.175781 25.988281 62.460938 25.707031 62.8125 25.703125 C 63.050781 25.695312 63.269531 25.839844 63.351562 26.0625 C 63.378906 26.152344 63.394531 26.246094 63.398438 26.339844 Z M 63.75 27.246094 C 63.644531 27.335938 63.527344 27.402344 63.398438 27.449219 C 63.261719 27.496094 63.117188 27.523438 62.96875 27.523438 C 62.734375 27.53125 62.507812 27.441406 62.339844 27.277344 C 62.214844 27.113281 62.148438 26.910156 62.152344 26.699219 L 63.855469 26.699219 C 63.890625 26.355469 63.796875 26.007812 63.59375 25.726562 C 63.382812 25.511719 63.089844 25.394531 62.789062 25.410156 C 61.21875 25.582031 61.328125 27.902344 62.910156 27.921875 C 63.199219 27.941406 63.492188 27.882812 63.75 27.75 C 63.742188 27.613281 63.742188 27.480469 63.75 27.34375 Z M 63.75 27.246094 "/>
</g>
<path fill-rule="nonzero" fill="rgb(13.725281%, 12.156677%, 12.548828%)" fill-opacity="1" d="M 49.589844 8.023438 C 50.4375 8.28125 52.371094 8.902344 52.371094 11.023438 C 52.378906 11.953125 51.9375 12.832031 51.1875 13.378906 C 50.191406 14.066406 48.996094 14.402344 47.789062 14.339844 C 46.796875 14.351562 45.8125 14.183594 44.878906 13.84375 L 44.558594 13.726562 L 44.460938 13.546875 C 44.535156 12.796875 44.535156 12.667969 44.578125 11.863281 L 44.796875 11.804688 C 45.644531 12.445312 46.683594 12.777344 47.746094 12.75 C 49.425781 12.75 50.039062 11.863281 50.039062 11.25 C 50.039062 10.328125 49.125 10.027344 47.835938 9.628906 L 47.152344 9.414062 C 46.28125 9.148438 44.371094 8.574219 44.371094 6.511719 C 44.371094 4.449219 46.28125 3.425781 48.660156 3.425781 C 49.714844 3.429688 50.765625 3.625 51.75 4.003906 L 51.855469 4.148438 C 51.78125 4.898438 51.75 4.964844 51.691406 5.722656 L 51.496094 5.804688 C 50.679688 5.269531 49.726562 4.988281 48.75 5.003906 C 48.445312 4.996094 48.140625 5.03125 47.84375 5.109375 C 47.210938 5.171875 46.710938 5.667969 46.640625 6.300781 C 46.640625 7.164062 47.511719 7.425781 48.832031 7.800781 Z M 49.589844 8.023438 "/>
<g clip-path="url(#clip-19)">
<path fill-rule="nonzero" fill="rgb(13.725281%, 12.156677%, 12.548828%)" fill-opacity="1" d="M 62.347656 8.820312 C 62.398438 9.734375 62.230469 10.644531 61.859375 11.484375 C 61.378906 12.355469 60.441406 12.875 59.445312 12.824219 C 59.011719 12.828125 58.585938 12.742188 58.191406 12.5625 C 56.511719 11.765625 56.488281 9.742188 56.488281 8.949219 C 56.425781 7.964844 56.644531 6.984375 57.128906 6.128906 C 57.65625 5.363281 58.539062 4.921875 59.46875 4.964844 C 60.367188 4.910156 61.230469 5.347656 61.71875 6.105469 C 62.140625 6.945312 62.355469 7.878906 62.347656 8.820312 Z M 64.664062 8.746094 C 64.71875 7.34375 64.257812 5.96875 63.375 4.882812 C 62.359375 3.902344 60.984375 3.382812 59.574219 3.441406 C 58.121094 3.371094 56.699219 3.875 55.621094 4.84375 C 54.589844 5.9375 54.046875 7.402344 54.121094 8.902344 C 54.054688 10.410156 54.59375 11.878906 55.621094 12.984375 C 56.660156 13.914062 58.023438 14.394531 59.414062 14.324219 C 60.753906 14.414062 62.074219 13.972656 63.097656 13.101562 C 63.800781 12.457031 64.289062 11.617188 64.5 10.6875 C 64.632812 10.050781 64.6875 9.398438 64.664062 8.746094 Z M 64.664062 8.746094 "/>
</g>
<path fill-rule="nonzero" fill="rgb(13.725281%, 12.156677%, 12.548828%)" fill-opacity="1" d="M 41.949219 8.910156 C 41.828125 10.46875 39.539062 10.46875 39.421875 8.910156 C 39.363281 8.171875 39.945312 7.546875 40.683594 7.546875 C 41.421875 7.546875 42.003906 8.171875 41.949219 8.910156 Z M 41.949219 8.910156 "/>
<path fill-rule="nonzero" fill="rgb(13.725281%, 12.156677%, 12.548828%)" fill-opacity="1" d="M 12.863281 0.121094 C 12.863281 1.65625 12.863281 2.601562 12.863281 3.996094 C 12.863281 7.359375 12.921875 10.703125 13.09375 14.054688 L 12.984375 14.175781 C 11.183594 14.175781 10.734375 14.175781 9.164062 14.234375 L 9 14.113281 C 9.105469 11.296875 9.105469 10.636719 9.066406 7.933594 C 8.210938 7.933594 7.363281 7.898438 6.515625 7.898438 C 5.671875 7.898438 4.90625 7.898438 3.96875 7.957031 C 3.96875 10.859375 4.011719 11.578125 4.140625 14.054688 L 4.035156 14.175781 C 2.167969 14.175781 1.785156 14.175781 0.234375 14.234375 L 0.148438 14.113281 C 0.148438 12.433594 0.234375 11.460938 0.234375 9.660156 C 0.234375 4.703125 0.105469 2.25 0 0.179688 L 0.128906 0.0585938 C 1.972656 0.0585938 2.296875 0.0585938 3.929688 0 L 4.035156 0.121094 L 3.988281 5.371094 L 6.238281 5.371094 C 7.191406 5.371094 8.128906 5.371094 9.066406 5.324219 C 9.066406 2.96875 9.066406 2.386719 8.894531 0.128906 L 9 0.0585938 C 10.785156 0.0585938 11.0625 0.0585938 12.75 0 Z M 12.863281 0.121094 "/>
<path fill-rule="nonzero" fill="rgb(13.725281%, 12.156677%, 12.548828%)" fill-opacity="1" d="M 18.75 7.636719 C 18.742188 6.863281 19.125 6.136719 19.761719 5.699219 C 20.019531 5.550781 20.3125 5.472656 20.609375 5.484375 C 21.152344 5.457031 21.671875 5.722656 21.96875 6.179688 C 22.210938 6.597656 22.324219 7.078125 22.289062 7.558594 Z M 25.171875 11.25 C 24.15625 11.8125 23.019531 12.105469 21.863281 12.105469 C 20.847656 12.214844 19.847656 11.800781 19.207031 11.011719 C 18.953125 10.632812 18.796875 10.203125 18.75 9.75 L 25.605469 9.628906 L 25.734375 9.488281 C 25.753906 8.476562 25.640625 7.46875 25.394531 6.488281 C 25.027344 4.972656 23.824219 3.804688 22.296875 3.488281 C 21.808594 3.363281 21.304688 3.304688 20.796875 3.308594 C 17.46875 3.308594 15.261719 5.371094 15.261719 8.828125 C 15.230469 9.734375 15.394531 10.640625 15.75 11.476562 C 16.980469 14.175781 19.867188 14.414062 21.390625 14.414062 C 22.648438 14.441406 23.894531 14.199219 25.050781 13.703125 L 25.171875 13.539062 L 25.320312 11.289062 Z M 25.171875 11.25 "/>
<path fill-rule="nonzero" fill="rgb(13.725281%, 12.156677%, 12.548828%)" fill-opacity="1" d="M 34.132812 7.636719 C 35.300781 8.0625 36.929688 8.640625 36.929688 10.835938 C 36.941406 10.984375 36.941406 11.132812 36.929688 11.28125 C 36.554688 14.136719 33.367188 14.414062 31.753906 14.414062 C 30.558594 14.414062 29.375 14.183594 28.265625 13.738281 L 28.171875 13.558594 C 28.253906 12.554688 28.265625 12.335938 28.320312 11.308594 L 28.5 11.25 C 28.761719 11.464844 29.046875 11.648438 29.347656 11.804688 C 30.050781 12.148438 30.816406 12.339844 31.597656 12.367188 C 32.789062 12.367188 33.277344 11.828125 33.277344 11.324219 C 33.277344 10.574219 32.339844 10.304688 31.777344 10.125 L 30.96875 9.847656 C 29.96875 9.488281 28.207031 8.851562 28.207031 6.710938 C 28.199219 6.078125 28.402344 5.457031 28.785156 4.949219 C 29.886719 3.449219 31.964844 3.367188 33.007812 3.367188 C 34.109375 3.375 35.203125 3.546875 36.253906 3.871094 L 36.359375 3.988281 L 36.148438 6.171875 L 35.953125 6.234375 C 35.175781 5.695312 34.253906 5.402344 33.308594 5.390625 C 31.988281 5.390625 31.808594 6.046875 31.808594 6.292969 C 31.808594 6.847656 32.386719 7.042969 33.105469 7.304688 Z M 34.132812 7.636719 "/>
</svg>
